<?xml version="1.0" encoding="utf-8"?>
<!-- Generator: Adobe Illustrator 23.1.1, SVG Export Plug-In . SVG Version: 6.00 Build 0)  -->
<svg version="1.1" id="b75ffde3-65ff-4761-a8e9-ebaeba35e9db"
	 xmlns="http://www.w3.org/2000/svg" xmlns:xlink="http://www.w3.org/1999/xlink" x="0px" y="0px" viewBox="0 0 863.7 787.5"
	 style="enable-background:new 0 0 863.7 787.5;" xml:space="preserve">
<style type="text/css">
	.st0{fill:#F2F2F2;}
	.st1{fill:#D0CDE1;}
	.st2{fill:#3F3D56;}
	.st3{fill:#2F2E41;}
	.st4{fill:#A0616A;}
	.st5{fill:#4F99F0;}
</style>
<title>cloud_docs</title>
<rect x="674.6" y="434.4" class="st0" width="2" height="140"/>
<rect x="674.6" y="281.4" class="st0" width="2" height="140"/>
<rect x="674.6" y="87.4" class="st0" width="2" height="140"/>
<circle class="st0" cx="675.6" cy="434.4" r="25"/>
<circle class="st0" cx="675.6" cy="267.4" r="47"/>
<circle class="st0" cx="675.6" cy="87.4" r="63"/>
<circle class="st1" cx="650.6" cy="59.4" r="10"/>
<circle class="st1" cx="690.6" cy="81.4" r="6"/>
<circle class="st1" cx="675.6" cy="113.4" r="6"/>
<path class="st2" d="M390.4,676.4c-57.7,0-114.8-11.2-168.1-33.1C39.8,569.1-47.9,361,26.3,178.6c0.1-0.2,0.1-0.4,0.2-0.6
	C86.1,31.9,252.9-38.3,399,21.3c0,0,0,0,0,0C516,69,572.2,202.6,524.5,319.6c-38.2,93.7-145.2,138.7-238.9,100.5c0,0,0,0,0,0
	c-75.1-30.6-111.1-116.3-80.5-191.4c0,0,0,0,0,0c24.6-60.1,93.2-89,153.3-64.5c48.2,19.7,71.3,74.7,51.7,122.9
	c-15.8,38.7-59.9,57.3-98.6,41.5c0,0,0,0,0,0c-31.1-12.7-46-48.1-33.3-79.1c0,0,0,0,0,0c10.2-24.9,38.6-36.9,63.6-26.7
	c20,8.2,29.7,31.1,21.5,51.1c-6.6,16.1-25,23.9-41.2,17.3c-13-5.3-19.3-20.2-14-33.2c4.3-10.5,16.3-15.6,26.8-11.3
	c8.5,3.5,12.6,13.2,9.1,21.7c-2.8,6.9-10.7,10.2-17.6,7.4c-5.6-2.3-8.3-8.7-6-14.4c1.9-4.6,7.1-6.8,11.8-4.9
	c3.8,1.5,5.6,5.9,4.1,9.7c-1.3,3.1-4.9,4.6-8,3.4c-2.6-1.1-3.9-4-2.8-6.7c0.9-2.2,3.4-3.2,5.6-2.3c1.9,0.8,2.7,2.9,2,4.7
	c-0.6,1.6-2.5,2.3-4,1.7c0,0,0,0,0,0c-1.4-0.6-2-2.1-1.5-3.5c0,0,0,0,0,0c0.1-0.3,0.3-0.6,0.5-0.8c-0.3,0.2-0.6,0.6-0.7,1
	c-0.6,1.6,0.1,3.4,1.7,4c2.1,0.9,4.5-0.2,5.4-2.3c1.1-2.8-0.2-5.9-3-7.1c-3.6-1.5-7.7,0.3-9.1,3.8c-1.9,4.6,0.3,9.9,4.9,11.8
	c5.9,2.4,12.6-0.4,15-6.3c3-7.5-0.5-16-8-19.1c-9.5-3.9-20.3,0.7-24.2,10.2c-4.9,12,0.9,25.7,12.9,30.6c15.1,6.1,32.4-1.1,38.6-16.2
	c7.7-19-1.4-40.7-20.4-48.5c-23.9-9.7-51.2,1.8-61,25.7c-12.2,30,2.2,64.3,32.2,76.5c0,0,0,0,0,0c37.7,15.4,80.6-2.7,96-40.4
	c19.2-47.2-3.5-101-50.6-120.3c-59.1-24-126.6,4.3-150.7,63.4c-30.2,74,5.4,158.6,79.4,188.8c92.7,37.8,198.5-6.7,236.3-99.4
	c0,0,0,0,0,0c47.3-116-8.4-248.4-124.4-295.7c0,0,0,0,0,0C253.4-35.9,87.4,33.9,28.4,178.8C-45.5,360,41.8,567.6,223,641.5
	c226.7,92.4,486.3-16.8,578.7-243.5l1.9,0.8C735.8,564.7,575.4,674,396.2,676.4C394.3,676.4,392.3,676.4,390.4,676.4z M329.8,264
	c0,0-0.1,0-0.1,0c-0.1,0-0.2,0.1-0.2,0.2c-0.1,0.3,0,0.7,0.4,0.9c0,0,0,0,0,0c0.6,0.2,1.2,0,1.4-0.6c0.3-0.8,0-1.6-0.7-2l-0.6,1.6
	C329.9,264,329.8,264,329.8,264z"/>
<circle class="st3" cx="489.6" cy="232.9" r="49.5"/>
<polygon class="st4" points="544.1,380.9 550.1,399.9 472.1,411.9 473.1,391.9 "/>
<path class="st4" d="M453.1,528.9l-3,61c0,0-17,31-15,75s1,45,1,45l-1,16l16,2v-21c0,0,23-58,25-87l23-87L453.1,528.9z"/>
<path class="st4" d="M566.1,528.9l3,61c0,0,17,31,15,75s-1,45-1,45l1,16l-16,2v-21c0,0-23-58-25-87l-23-87L566.1,528.9z"/>
<path class="st3" d="M550.1,393.9c0,0-72,11-83,8l-36,125c0,0,33,13,73,9c8.2-1.6,16.7-0.2,24,4c12,7,48-12,48-12l25-5L550.1,393.9z
	"/>
<rect x="496.6" y="407.4" class="st5" width="80" height="91"/>
<rect x="484.6" y="417.4" class="st0" width="80" height="91"/>
<path class="st4" d="M437.1,332.9l-1,14l18,62c0,0,7,44,21,70c0,0,8,40,23,35c15-5-7-44-7-44l-16-60l-19-79L437.1,332.9z"/>
<ellipse transform="matrix(0.2898 -0.9571 0.9571 0.2898 110.9432 650.2961)" class="st4" cx="493.6" cy="250.4" rx="30" ry="30"/>
<path class="st4" d="M476.1,267.9c0,0,9,27-9,32s-36,16-32,34l2,4l125-30c-5.6-9.3-16.2-14.4-27-13c0,0-27.8-0.7-25.9-18.9l-3.1-7.1
	L476.1,267.9z"/>
<path class="st4" d="M558.1,305.9c0,0,5,0,18,17s22,26,22,26s12,6,5,20s-32,28-32,28s-25,30-28,15s21-23,21-23s18-17,17-27l-41-34
	L558.1,305.9z"/>
<path class="st1" d="M433.1,330.9c0,0,124-29,127-29l6.3,9.7c0,0-1.3,7.3-16.3,9.3c0,0,3,15-3,30v37c0,0-70,8-76,14l-10.8-53.4
	c0,0-14.2-8.6-24.2-1.6C436.1,346.9,432.1,333.9,433.1,330.9z"/>
<path class="st3" d="M453.1,723.9c0,0-10.4-12.7-17.7-2.8l-9.3,18.8c0,0-26,44,1,47s29-7,29-7s-2-12,0-14s4-3,4-7
	S453.1,723.9,453.1,723.9z"/>
<path class="st3" d="M566.1,723.9c0,0,10.4-12.7,17.7-2.8l9.3,18.8c0,0,26,44-1,47s-29-7-29-7s2-12,0-14s-4-3-4-7
	S566.1,723.9,566.1,723.9z"/>
<circle class="st3" cx="444.2" cy="197" r="14.8"/>
<circle class="st3" cx="534.9" cy="192.8" r="14.8"/>
<path class="st3" d="M519.1,186.5c0-7.5,5.7-13.9,13.2-14.7c-8.1-0.9-15.4,5-16.3,13.1c-0.9,8.1,5,15.4,13.1,16.3
	c1.1,0.1,2.1,0.1,3.2,0C524.8,200.4,519.1,194,519.1,186.5z"/>
<path class="st3" d="M427.8,209c-5.3-5.4-5.6-13.9-0.9-19.7c-6.4,5-7.5,14.3-2.5,20.7c5,6.4,14.3,7.5,20.7,2.5
	c0.8-0.7,1.6-1.4,2.3-2.2C441.5,214.9,433,214.4,427.8,209z"/>
<path class="st3" d="M489.6,209.7c-17.5,0-31.6,8.3-31.6,18.4c0,4.6,2.8,8.7,7.5,11.9l6.1-4.4l-1.7,6.9c0.7,0.3,1.4,0.6,2.1,0.9
	l9.1-10.6v13c2.8,0.4,5.6,0.7,8.4,0.7c17.5,0,31.6-8.3,31.6-18.4S507,209.7,489.6,209.7z"/>
<path class="st5" d="M520.1,192.8c0,0-2.3,10.5,12,14.8"/>
<path class="st5" d="M457.9,194.7c0,0,5.3,11.8-10.5,17.1"/>
<ellipse transform="matrix(0.963 -0.2696 0.2696 0.963 -51.9356 134.6177)" class="st4" cx="464.1" cy="256.4" rx="2.5" ry="6"/>
<ellipse transform="matrix(6.147065e-02 -0.9981 0.9981 6.147065e-02 241.0053 759.093)" class="st4" cx="524.1" cy="251.4" rx="6" ry="2.5"/>
<rect x="783.6" y="297.4" class="st5" width="80" height="91"/>
<rect x="204.6" y="118.4" class="st5" width="80" height="91"/>
<path class="st2" d="M855.6,399.4l-82,0l0.1-93l82,0L855.6,399.4z M775.6,397.4l78,0l0.1-89l-78,0L775.6,397.4z"/>
<rect x="218.6" y="134.4" class="st0" width="52" height="6"/>
<rect x="218.6" y="151.4" class="st0" width="52" height="6"/>
<rect x="218.6" y="168.4" class="st0" width="52" height="6"/>
<path class="st2" d="M299.6,197.4l-82,0l0.1-93l82,0L299.6,197.4z M219.6,195.4l78,0l0.1-89l-78,0L219.6,195.4z"/>
<rect x="22.6" y="457.4" class="st0" width="80" height="91"/>
<rect x="36.6" y="478.4" class="st2" width="52" height="44"/>
<path class="st2" d="M117.6,536.4l-82,0l0.1-93l82,0L117.6,536.4z M37.6,534.4l78,0l0.1-89l-78,0L37.6,534.4z"/>
<ellipse transform="matrix(0.9997 -2.378936e-02 2.378936e-02 0.9997 -11.8863 1.6319)" class="st5" cx="62.6" cy="500.4" rx="12" ry="12"/>
</svg>
